<svg id="Layer_1_copy_2" data-name="Layer 1 copy 2" xmlns="http://www.w3.org/2000/svg" viewBox="0 0 277.8 277.8"><defs><style>.cls-1{fill:#fff;}</style></defs><title>dup</title><path class="cls-1" d="M141.73,2.83a138.9,138.9,0,1,0,138.9,138.9A138.9,138.9,0,0,0,141.73,2.83ZM231,98.72c0,0.21-.06.42-0.09,0.63s-0.07.55-.13,0.83-0.12.48-.18,0.72-0.11.47-.18,0.7-0.16.47-.24,0.7-0.16.46-.25,0.69-0.2.43-.3,0.64-0.21.47-.33,0.69-0.23.4-.35,0.6-0.26.44-.4,0.66-0.32.43-.48,0.65-0.25.36-.4,0.53c-0.31.38-.65,0.75-1,1.1L152.2,182.3h23.39l-18.93,18.93H112.06V156.63L131,137.7v23.39l48.86-48.86H67.41a15,15,0,0,1,0-30H216.08q0.73,0,1.45.07c0.22,0,.44.06,0.66,0.1s0.53,0.07.79,0.12,0.49,0.12.74,0.18,0.46,0.11.69,0.18,0.47,0.16.7,0.25,0.46,0.16.68,0.25,0.43,0.2.64,0.3,0.46,0.21.69,0.33,0.4,0.23.6,0.35,0.45,0.26.66,0.4,0.43,0.31.64,0.47,0.36,0.26.53,0.4a15.09,15.09,0,0,1,2.09,2.09c0.14,0.17.26,0.35,0.39,0.52s0.33,0.43.48,0.65,0.27,0.43.4,0.65,0.25,0.4.36,0.6,0.22,0.46.33,0.68,0.21,0.43.3,0.65,0.17,0.45.25,0.68,0.17,0.46.25,0.7,0.12,0.46.18,0.7,0.13,0.48.18,0.73,0.09,0.55.12,0.82,0.07,0.42.09,0.63A15.08,15.08,0,0,1,231,98.72Z" transform="translate(-2.83 -2.83)"/></svg>